<?xml version="1.0" standalone="no"?><!DOCTYPE svg PUBLIC "-//W3C//DTD SVG 1.1//EN" "http://www.w3.org/Graphics/SVG/1.1/DTD/svg11.dtd"><svg t="1585318143855" class="icon" viewBox="0 0 1365 1024" version="1.1" xmlns="http://www.w3.org/2000/svg" p-id="5416" xmlns:xlink="http://www.w3.org/1999/xlink" width="266.6015625" height="200"><defs><style type="text/css"></style></defs><path d="M1194.666667 0H170.666667a170.666667 170.666667 0 0 0-170.666667 170.666667v284.444444a56.888889 56.888889 0 0 0 56.888889 56.888889h227.555555a56.888889 56.888889 0 0 1 0 113.777778H56.888889a56.888889 56.888889 0 0 0-56.888889 56.888889 56.888889 56.888889 0 0 0 56.888889 56.888889h113.777778a56.888889 56.888889 0 0 1 0 113.777777H72.248889a56.888889 56.888889 0 0 0-51.2 82.488889A170.666667 170.666667 0 0 0 170.666667 1024h1024a170.666667 170.666667 0 0 0 170.666666-170.666667V170.666667a170.666667 170.666667 0 0 0-170.666666-170.666667z m36.408889 220.728889l-439.182223 365.226667a170.666667 170.666667 0 0 1-218.453333 0L134.257778 220.728889a56.888889 56.888889 0 0 1 72.817778-87.04l439.182222 365.226667a56.888889 56.888889 0 0 0 72.817778 0l439.182222-365.226667a56.888889 56.888889 0 0 1 72.817778 87.608889z" fill="#3E2AD1" p-id="5417"></path></svg>